<svg viewBox="115.79999999999995 297.3151260504203 2084.4000000000005 1096.890756302521" fill="none" xmlns="http://www.w3.org/2000/svg" xmlns:xlink="http://www.w3.org/1999/xlink" overflow="visible" width="2084.4000000000005px" height="1096.890756302521px"><g id="Master/Holidays Scenes/Together"><g id="Background/Ground" transform="translate(888 -51) scale(0.999031007751938 1)"><g id="Background/Ground/Small Tree"><g id="Small Tree"><path id="Fill 3" fill-rule="evenodd" clip-rule="evenodd" d="M456.315 360.113C419.994 371.705 389.331 396.346 369.039 428.477C306.433 527.615 149.288 829.706 396.391 1046.6C695.947 1309.53 826.844 731.082 748.81 545.779C692.513 412.096 569.272 324.066 456.315 360.113" fill="#E3D4C5"/><path id="Combined Shape" fill-rule="evenodd" clip-rule="evenodd" d="M530.938 1413.65C530.938 1419.92 525.79 1425 519.438 1425C513.087 1425 507.938 1419.92 507.938 1413.65V996.151L318.828 830.937C314.106 826.811 313.615 819.63 317.732 814.898C321.849 810.165 329.014 809.674 333.737 813.799L405.358 876.371L407.368 775.141C407.493 768.864 412.646 763.877 418.878 764.002C425.11 764.128 430.061 769.319 429.936 775.596L427.551 895.759L507.938 965.989V747.089L387.542 634.646C382.962 630.369 382.715 623.187 386.989 618.605C391.263 614.023 398.44 613.776 403.019 618.052L507.938 716.041V596.348C507.938 590.081 513.087 585 519.438 585C525.79 585 530.938 590.081 530.938 596.348V799.743L631.008 708.938C635.633 704.741 642.791 705.081 646.995 709.698C651.2 714.314 650.859 721.459 646.234 725.656L530.938 830.277V1413.65Z" fill="#FFF5EE"/></g></g></g><g id="Background/Sky" transform="translate(596 977) scale(0.997872340425532 1)"><g id="Background/Sky/Cloud 4"><path id="Fill 29" fill-rule="evenodd" clip-rule="evenodd" d="M16.8076 397H422.271C436.989 397 451.179 390.801 460.649 379.549C472.924 364.961 478.452 340.923 441.983 306.277C429.799 294.701 413.85 287.651 397.044 287.08C376.92 286.396 354.553 294.947 355.312 336.684C355.312 336.684 284.802 204.316 174.679 207.042C153.736 207.559 136.146 223.562 134.279 244.406C132.466 264.643 138.95 295.35 167.31 340.796C167.31 340.796 119.312 320.726 76.6736 326.844C66.0097 328.373 56.3629 334.35 50.7104 343.512C47.5862 348.575 45.9493 354.162 49.2933 358.616C49.2933 358.616 24.775 358.968 9.39896 367.154C-5.19706 374.923 0.269993 397 16.8076 397" fill="#E3D4C5"/></g></g><g id="Background/Sky" transform="translate(523 605) scale(0.997872340425532 1)"><g id="Background/Sky/Small Cloud 3"><path id="Fill 1" fill-rule="evenodd" clip-rule="evenodd" d="M0.938477 353H209.237C209.237 353 221.446 246.275 143.986 265.263C93.3538 277.674 101.322 322.919 101.322 322.919C101.322 322.919 73.2376 296.08 43.1215 306.107C13.0069 316.134 0.938477 353 0.938477 353" fill="#E3D4C5"/><path id="Fill 30" fill-rule="evenodd" clip-rule="evenodd" d="M173.938 397H469.938C469.938 397 420.871 283.029 370.196 332.966C370.196 332.966 334.725 235.586 263.779 250.567C192.835 265.548 173.938 397 173.938 397" fill="#FFF5EE"/></g></g><g id="Master/Holidays Character/Standing" transform="translate(362 378) scale(1 1)"><g id="Master/Holidays Character/Standing"><g id="Holidays Bottom/Standing" transform="translate(0 443) scale(1 1)"><g id="Holidays Bottom/Standing/Simple"><g id="Group 12"><path id="Path" fill-rule="evenodd" clip-rule="evenodd" d="M480.27 460L546.27 191L436.27 118L393.27 289L316.77 489.5C316.77 489.5 297.77 497 237.77 481.5C237.77 481.5 280.58 334 301.77 254.5C301.77 232 330.3 11.28 338.97 -1H493.27C493.27 -1 611.45 91.84 638.77 127.06C681.77 182.5 539.77 494.5 539.77 494.5" fill="#5BA092"/><g id="Clipped"><mask id="mask0_711_1437934ff42db2-77a2-4cd1-9961-f0f75b1d5a83" style="mask-type:luminance" maskUnits="userSpaceOnUse" x="237" y="-1" width="410" height="496" fill="#ffffff"><path id="Path_2" fill-rule="evenodd" clip-rule="evenodd" d="M480.27 460L546.27 191L436.27 118L393.27 289L316.77 489.5C316.77 489.5 297.77 497 237.77 481.5C237.77 481.5 280.58 334 301.77 254.5C301.77 232 330.3 11.28 338.97 -1H493.27C493.27 -1 611.45 91.84 638.77 127.06C681.77 182.5 539.77 494.5 539.77 494.5" fill="#ffffff"/></mask><g mask="url(#mask0_711_1437934ff42db2-77a2-4cd1-9961-f0f75b1d5a83)"><g id="Group"><path id="Path (Stroke)" fill-rule="evenodd" clip-rule="evenodd" d="M361.912 124.223C333.871 116.918 304.776 107.623 287.77 95.2785L305.392 71C317.166 79.5458 340.831 87.7301 369.475 95.1925C389.215 100.335 409.715 104.764 428.073 108.73C435.794 110.398 443.136 111.984 449.884 113.507L443.278 142.771C437.023 141.359 429.991 139.84 422.463 138.213C403.888 134.199 382.294 129.533 361.912 124.223Z" fill="#2F6858"/><path id="Path (Stroke)_2" fill-rule="evenodd" clip-rule="evenodd" d="M610.328 494.104C543.99 508.425 486.838 473.164 456.77 452.864L473.555 428C503.567 448.261 551.095 476.2 603.997 464.78L610.328 494.104Z" fill="#2F6858"/><path id="Path (Stroke)_3" fill-rule="evenodd" clip-rule="evenodd" d="M639.717 412.328C566.407 430.795 503.461 385.321 470.77 359.565L489.336 336C522.645 362.243 574.699 397.769 632.388 383.237L639.717 412.328Z" fill="#2F6858"/><path id="Path (Stroke)_4" fill-rule="evenodd" clip-rule="evenodd" d="M657.717 330.328C584.407 348.795 521.461 303.321 488.77 277.565L507.336 254C540.645 280.243 592.699 315.769 650.388 301.237L657.717 330.328Z" fill="#2F6858"/><path id="Path (Stroke)_5" fill-rule="evenodd" clip-rule="evenodd" d="M607.21 246.675C575.945 244.26 546.626 236.209 526.77 220.565L545.336 197C558.479 207.355 580.91 214.554 609.52 216.764C637.716 218.942 670.087 216.122 701.388 208.237L708.717 237.328C674.518 245.943 638.889 249.122 607.21 246.675Z" fill="#2F6858"/><path id="Path (Stroke)_6" fill-rule="evenodd" clip-rule="evenodd" d="M540.403 91.3543C521.933 110.85 498.407 132.579 474.508 153.459L454.77 130.867C478.37 110.248 501.094 89.2261 518.624 70.7219C527.397 61.4622 534.67 53.0407 540.051 45.7705C545.643 38.2155 548.364 32.9912 549.228 30L578.049 38.3262C575.664 46.585 570.322 55.2981 564.164 63.6182C557.795 72.223 549.631 81.6139 540.403 91.3543Z" fill="#2F6858"/><path id="Path (Stroke)_7" fill-rule="evenodd" clip-rule="evenodd" d="M526.249 210.505C520.243 211.938 512.487 212.27 505.27 207.974L520.614 182.195C519.495 181.529 518.646 181.476 518.448 181.476C518.546 181.469 518.811 181.437 519.283 181.325C521.066 180.899 524.038 179.692 528.363 177.117C536.97 171.994 547.796 163.39 560.37 152.498C567.819 146.044 575.856 138.795 584.175 131.292C602.871 114.43 622.989 96.2844 641.056 83L658.828 107.17C641.982 119.556 623.892 135.882 605.803 152.205C597.161 160.004 588.519 167.803 580.014 175.172C567.337 186.154 554.788 196.301 543.708 202.896C538.19 206.181 532.239 209.075 526.249 210.505ZM518.404 181.477C518.404 181.477 518.419 181.476 518.448 181.476C518.418 181.478 518.404 181.478 518.404 181.477Z" fill="#2F6858"/><path id="Path (Stroke)_8" fill-rule="evenodd" clip-rule="evenodd" d="M344.873 211.54C313.2 202.528 284.126 188.057 265.77 173.595L284.336 150.03C298.98 161.567 324.305 174.497 353.083 182.685C381.909 190.887 412.242 193.773 437.295 187.29L444.81 216.334C412.663 224.652 376.497 220.538 344.873 211.54Z" fill="#2F6858"/><path id="Path (Stroke)_9" fill-rule="evenodd" clip-rule="evenodd" d="M325.873 290.58C294.2 281.568 265.126 267.097 246.77 252.635L265.336 229.07C279.98 240.608 305.305 253.537 334.083 261.725C362.909 269.927 393.242 272.813 418.295 266.33L425.81 295.374C393.663 303.692 357.497 299.578 325.873 290.58Z" fill="#2F6858"/><path id="Path (Stroke)_10" fill-rule="evenodd" clip-rule="evenodd" d="M309.873 369.61C278.2 360.598 249.126 346.127 230.77 331.665L249.336 308.1C263.98 319.638 289.305 332.567 318.083 340.755C346.909 348.957 377.242 351.843 402.295 345.361L409.81 374.404C377.663 382.722 341.497 378.608 309.873 369.61Z" fill="#2F6858"/><path id="Path (Stroke)_11" fill-rule="evenodd" clip-rule="evenodd" d="M291.873 448.64C260.2 439.628 231.126 425.157 212.77 410.695L231.336 387.13C245.98 398.668 271.305 411.597 300.083 419.785C328.909 427.987 359.242 430.873 384.295 424.39L391.81 453.434C359.663 461.752 323.497 457.638 291.873 448.64Z" fill="#2F6858"/></g></g></g><path id="Shape" fill-rule="evenodd" clip-rule="evenodd" d="M436.55 118.17C437.09 118.29 437.63 117.95 437.75 117.41L441.12 102.22C441.24 101.68 440.89 101.14 440.36 101.02C439.82 100.9 439.28 101.24 439.16 101.78L435.79 116.98C435.67 117.51 436.01 118.05 436.55 118.17ZM547.03 191.79C547.41 192.19 548.04 192.22 548.45 191.85L562.72 178.74C563.13 178.36 563.16 177.73 562.78 177.32C562.41 176.92 561.78 176.89 561.37 177.26L547.09 190.37C546.69 190.75 546.66 191.38 547.03 191.79Z" fill="#2F6858"/><path id="Path_3" fill-rule="evenodd" clip-rule="evenodd" d="M363.13 516.79C356.8 512.08 320.6 492.14 317.27 489C294.81 490.05 285.27 490 237.77 480.5C233.76 491.73 226.69 517.14 234.55 525.67C245.26 537.3 264.55 507.6 264.55 507.6C264.55 507.6 272.99 544.29 355.18 552.36C360.9 552.92 366.72 551.67 371.53 548.51C379.33 543.39 385.52 533.44 363.13 516.79Z" fill="#010101"/><path id="Path_4" d="M497.771 528.5C490.771 527.7 485.271 517.5 480.271 493.5C479.551 486.76 476.271 476.5 480.271 459.5C506.771 474.5 548.321 466.8 551.771 465L571.271 474.5C659.171 502.77 645.141 514.79 625.271 524.08C603.911 534.07 567.251 530.81 546.541 524.08C533.711 519.92 515.771 507 515.771 507C515.771 507 508.551 529.74 497.771 528.5Z" fill="#010101"/></g></g></g><g id="Holidays Head" transform="translate(268 82) scale(1 1)"><g id="Holidays Head/Holiday Hat"><g id="Group 2"><path id="Path" fill-rule="evenodd" clip-rule="evenodd" d="M173.325 104.207C172.463 104.261 171.732 103.594 171.749 102.731C171.754 102.487 171.757 102.242 171.757 101.998C171.757 74.3299 144.346 51.9019 110.534 51.9019C76.721 51.9019 49.31 74.3299 49.31 101.998C49.31 102.258 49.313 102.518 49.318 102.778C49.336 103.651 48.59 104.326 47.721 104.245C47.228 104.199 46.727 104.175 46.22 104.175C38.367 104.175 32 109.523 32 116.119C32 122.716 38.367 128.064 46.22 128.064C49.406 128.064 52.341 127.178 54.71 125.689C55.451 125.223 56.409 125.416 56.898 126.142C65.143 138.379 79.451 147.489 96.5172 150.762C97.9902 151.044 99.0212 152.378 98.9352 153.876L97.3142 182.763H123.753L122.131 153.876C122.046 152.378 123.078 151.044 124.551 150.761C141.519 147.508 155.762 138.484 164.029 126.352C164.504 125.654 165.422 125.444 166.147 125.874C168.461 127.25 171.279 128.064 174.329 128.064C182.182 128.064 188.548 122.716 188.548 116.119C188.548 109.523 182.182 104.175 174.329 104.175C173.991 104.175 173.656 104.187 173.325 104.207Z" fill="#f7d3bb"/><path id="Path" fill-rule="evenodd" clip-rule="evenodd" d="M49.3186 102.777C49.3186 102.777 95.0597 94.2137 98.1937 64.6662C98.1937 64.6662 109.119 100.327 171.75 102.73C171.75 102.73 174.063 83.6307 161.209 67.5002C148.355 51.3692 119.118 44.8162 95.1737 47.5892C68.2896 50.7022 46.2776 81.1097 49.3186 102.777Z" fill="#010101"/><path id="Path_2" d="M70.9993 25.2631C59.8566 36.4059 53.3327 48.9298 54.4994 64.2631L168.499 69.2631C167.666 56.9298 165.693 50.7632 160.999 39.2632C147.938 7.2632 93.9993 2.2631 70.9993 25.2631Z" fill="#2F6858"/><g id="Clipped"><mask id="mask0_711_143908dbffd3af-8dee-4518-83da-19ca23bb4de7" style="mask-type:luminance" maskUnits="userSpaceOnUse" x="54" y="11" width="115" height="59" fill="#ffffff"><path id="Path_3" fill-rule="evenodd" clip-rule="evenodd" d="M70.9993 25.2631C59.8566 36.4059 53.3327 48.9298 54.4994 64.2631L168.499 69.2631C167.666 56.9298 165.693 50.7632 160.999 39.2632C147.938 7.2632 93.9993 2.2631 70.9993 25.2631Z" fill="#ffffff"/></mask><g mask="url(#mask0_711_143908dbffd3af-8dee-4518-83da-19ca23bb4de7)"><g id="Group"><circle id="Oval" cx="65.5" cy="34.2632" r="3.5" fill="#E58857"/><circle id="Oval_2" cx="100.5" cy="49.2632" r="3.5" fill="#E58857"/><circle id="Oval_3" cx="114.5" cy="36.2632" r="3.5" fill="#E58857"/><circle id="Oval_4" cx="137.5" cy="28.2632" r="3.5" fill="#E58857"/><circle id="Oval_5" cx="152.5" cy="51.2632" r="3.5" fill="#E58857"/><circle id="Oval_6" cx="123.5" cy="59.2632" r="3.5" fill="#E58857"/><circle id="Oval_7" cx="72.5" cy="53.2632" r="3.5" fill="#E58857"/><circle id="Oval_8" cx="87.5" cy="16.2632" r="3.5" fill="#E58857"/></g></g></g><path id="Path_4" fill-rule="evenodd" clip-rule="evenodd" d="M50.0011 88.2631L102.501 86.7631L171.501 92.2631C171.501 92.2631 179.555 80.9471 168.501 67.7631C159.774 57.3547 103.456 56.1946 65.5012 59.2631C41.0012 63.2631 50.0011 88.2631 50.0011 88.2631Z" fill="#78BFB1"/><path id="Path_5" d="M111.534 -10.2824L102.58 -22L101.377 -10.3029L86.5478 -12.5764L93.2825 1.18058L83.3574 8.60118L95.1835 15.1347L91.9555 26.3747L107.14 20.3737L119.082 28.7913L117.717 15.6998L133.201 16.7023L125.582 4.54048L135.187 -0.888323L122.739 -5.08782L119.565 -17.236L111.534 -10.2824Z" fill="#E58857"/></g></g></g><g id="Expression" transform="translate(351 173) scale(0.989010989010989 1)"><g id="Expression/Sunglasses"><g id="Sunglasses"><path id="Fill 20" fill-rule="evenodd" clip-rule="evenodd" d="M51.355 50.5504C51.355 53.0084 47.172 55.0004 42.011 55.0004C36.851 55.0004 32.668 53.0084 32.668 50.5504C32.668 48.0934 36.851 46.1014 42.011 46.1014C47.172 46.1014 51.355 48.0934 51.355 50.5504" fill="#E74B33"/><path id="Fill 17" fill-rule="evenodd" clip-rule="evenodd" d="M68.9303 10.5041C60.0253 10.5041 52.6963 17.2151 51.7023 25.8541H43.4443C42.4503 17.2151 35.1213 10.5041 26.2163 10.5041C16.6323 10.5041 8.86328 18.2731 8.86328 27.8571C8.86328 37.4401 16.6323 45.2091 26.2163 45.2091C35.1993 45.2091 42.5873 38.3841 43.4783 29.6361H51.6683C52.5593 38.3841 59.9473 45.2091 68.9303 45.2091C78.5143 45.2091 86.2833 37.4401 86.2833 27.8571C86.2833 18.2731 78.5143 10.5041 68.9303 10.5041" fill="#010101"/></g></g></g><g id="Holidays Body" transform="translate(87 44) scale(1 1)"><g id="Holidays Body/Arms Down"><g id="Group 8"><path id="Shape" fill-rule="evenodd" clip-rule="evenodd" d="M331.684 218.641C247.188 216.191 183.541 229.981 165.995 234.271C164.705 234.501 164.05 234.591 164.675 234.411C125.026 243.991 79.1967 258.191 67.0697 274.731C44.5857 305.391 57.1737 340.251 97.3737 379.761C126.708 408.601 155.033 424.701 169.594 430.191C179.907 419.351 191.726 404.671 202.392 391.411L202.415 391.381C203.595 389.921 204.76 388.471 205.907 387.051L204.763 395.411L191 448.501L234.5 430.001L257 461.501L287.5 430.001L322.5 461.501L339.5 430.001L380 456.001L382.5 424.001L420.5 446.001L403.041 404.271C411.579 414.801 420.444 425.471 428.411 433.841C442.972 428.351 471.298 412.251 500.63 383.411C540.83 343.891 545.42 309.031 522.93 278.371C508.97 259.331 453.944 242.451 411.733 233.041L411.747 233.001C410.488 232.701 409.217 232.401 407.935 232.101C382.898 226.181 353.71 219.281 331.684 218.641ZM388.467 304.901L397.108 370.941C424.012 351.141 451.188 326.001 451.188 326.001L388.467 304.901ZM143.817 322.351L218.311 296.331L207.916 372.351C178.608 352.091 143.817 322.351 143.817 322.351Z" fill="#2F6858"/><path id="Shape_2" fill-rule="evenodd" clip-rule="evenodd" d="M310.385 286.071C310.385 288.871 308.06 291.141 305.193 291.141C302.325 291.141 300 288.871 300 286.071C300 283.271 302.325 281.001 305.193 281.001C308.06 281.001 310.385 283.271 310.385 286.071ZM143.986 322.141C144.405 321.781 144.452 321.151 144.092 320.731C144.012 320.641 143.863 320.471 143.652 320.231C143.301 319.841 142.903 319.401 142.466 318.931C141.215 317.581 139.892 316.231 138.554 314.971C137.56 314.031 136.595 313.171 135.67 312.421C132.971 310.231 130.754 309.001 129 309.001C128.448 309.001 128 309.451 128 310.001C128 310.551 128.448 311.001 129 311.001C130.139 311.001 132.056 312.061 134.409 313.981C135.293 314.691 136.222 315.511 137.182 316.421C138.484 317.651 139.776 318.971 140.999 320.291C141.427 320.751 141.815 321.181 142.157 321.561C142.361 321.791 142.503 321.951 142.576 322.041C142.936 322.461 143.568 322.501 143.986 322.141ZM451.184 327.071C451.502 327.521 452.126 327.631 452.577 327.311C452.679 327.241 452.874 327.101 453.154 326.911C453.622 326.591 454.153 326.231 454.736 325.841C456.404 324.741 458.157 323.641 459.911 322.611C461.02 321.961 462.095 321.361 463.123 320.821C466.574 319.021 469.321 318.001 470.969 318.001C471.521 318.001 471.969 317.551 471.969 317.001C471.969 316.451 471.521 316.001 470.969 316.001C468.895 316.001 465.923 317.101 462.196 319.051C461.138 319.601 460.035 320.221 458.9 320.881C457.112 321.931 455.329 323.051 453.633 324.171C453.039 324.571 452.499 324.931 452.022 325.261C451.734 325.461 451.531 325.601 451.423 325.671C450.972 325.991 450.865 326.621 451.184 327.071ZM306.083 327.061C308.906 326.561 310.794 323.911 310.301 321.161C309.807 318.401 307.118 316.581 304.296 317.081C301.473 317.591 299.585 320.231 300.079 322.991C300.572 325.741 303.26 327.571 306.083 327.061ZM310.301 364.161C310.794 366.911 308.906 369.561 306.083 370.061C303.26 370.571 300.572 368.741 300.079 365.991C299.585 363.231 301.473 360.591 304.296 360.081C307.118 359.581 309.807 361.401 310.301 364.161ZM308.082 413.061C310.905 412.561 312.794 409.911 312.3 407.161C311.807 404.401 309.118 402.581 306.296 403.081C303.473 403.591 301.585 406.231 302.078 408.991C302.571 411.741 305.259 413.571 308.082 413.061Z" fill="#5BA092"/><path id="Path" d="M300 236.001C282.8 235.601 275 223.831 273 218.501L226.5 223.001L261 237.501L237 264.001L285 253.001L298 290.501L322 256.501H357.5L339 237.501L371.5 223.001L331.5 218.501C328.5 224.171 317.2 236.401 300 236.001Z" fill="#5BA092"/><path id="Shape" fill-rule="evenodd" clip-rule="evenodd" d="M331.307 218.851C327.08 218.661 290.257 217.091 273.099 218.761C275.248 224.201 283.071 235.611 300 236.001C316.851 236.391 328.039 224.661 331.307 218.851ZM174.722 424.541C180.115 426.571 182.435 426.151 182.435 426.151C182.435 426.151 149.311 452.891 148.598 454.321C146.686 458.151 153.061 462.611 157.524 462.291C157.524 462.291 145.374 478.751 145.73 483.011C145.891 484.941 153.38 492.891 165.812 478.861L163.049 488.231C162.163 491.221 162.921 494.551 165.235 496.661C167.32 498.551 170.321 499.411 173.987 495.261C178.708 489.931 180.507 486.281 181.969 483.311C182.777 481.671 183.482 480.241 184.52 478.851C187.078 475.421 195.447 468.961 195.447 468.961C194.704 470.281 193.384 472.361 191.823 474.831V474.831C186.856 482.681 179.455 494.381 180.479 497.361C180.942 498.711 184.34 502.041 195.177 493.751C206.015 485.461 219.364 459.421 219.364 459.421C219.364 459.421 216.611 485.291 219.799 487.841C220.862 488.691 222.588 488.431 224.417 487.711C229.098 485.871 232.402 481.611 233.329 476.671L239.491 443.811C243.475 427.161 240.95 409.481 231.882 394.961C227.814 388.441 222.15 382.061 214.32 376.711C210.104 381.811 205.943 386.951 201.766 392.101V392.101V392.101C193.035 402.881 184.236 413.751 174.722 424.541ZM449.932 487.711C448.727 489.121 446.114 489.271 444.437 489.021C440.065 488.361 435.917 486.281 432.774 483.171C435.015 485.621 436.62 488.651 437.387 491.871C437.686 493.131 437.818 494.591 437.008 495.591C436.046 496.791 434.238 496.781 432.728 496.511C429.625 495.941 426.652 494.671 424.1 492.821C426.488 495.701 423.783 500.481 420.135 501.321C416.487 502.151 412.777 500.341 409.655 498.271C397.778 490.411 389.326 478.461 381.157 466.801C384.236 471.911 386.544 477.501 387.977 483.301C388.102 483.801 388.257 484.321 388.415 484.851C389.101 487.161 389.829 489.611 388.227 491.211C386.592 492.841 382.637 492.881 380.561 491.881C378.484 490.871 376.954 489.021 375.644 487.121C371.071 480.491 368.402 472.761 366.113 465.041C361.693 450.141 358.469 434.521 360.475 419.101C362.481 403.691 370.45 388.401 383.992 380.771C386.409 383.731 388.824 386.701 391.239 389.671C401.687 402.511 412.163 415.391 423.01 427.881C421.616 428.361 420.461 428.601 419.306 428.841C418.15 429.081 416.995 429.321 415.601 429.801L444.471 459.511C445.427 460.491 446.422 461.541 446.732 462.881C447.292 465.281 445.299 467.701 442.949 468.461C440.6 469.231 438.044 468.761 435.636 468.211C440.371 472.021 444.625 476.431 448.28 481.301C448.492 481.581 448.714 481.861 448.934 482.131C450.356 483.911 451.719 485.621 449.932 487.711Z" fill="#f7d3bb"/><path id="Shape_3" fill-rule="evenodd" clip-rule="evenodd" d="M416.185 430.591C416.621 430.251 416.699 429.621 416.359 429.191L408.371 418.931C408.032 418.501 407.403 418.421 406.968 418.761C406.532 419.101 406.454 419.731 406.793 420.161L414.781 430.421C415.121 430.851 415.749 430.931 416.185 430.591ZM182.772 427.101C182.252 427.281 181.679 427.011 181.493 426.491C181.307 425.971 181.577 425.401 182.097 425.211L191.131 421.981C191.651 421.791 192.224 422.061 192.41 422.581C192.596 423.101 192.326 423.671 191.806 423.861L182.772 427.101ZM158.178 463.051C157.76 463.411 157.128 463.361 156.767 462.941C156.406 462.521 156.452 461.891 156.87 461.531C157.011 461.411 157.275 461.181 157.646 460.861C158.263 460.321 158.951 459.731 159.692 459.081C161.808 457.231 163.925 455.361 165.899 453.601L166.144 453.381L166.389 453.161C170.646 449.351 173.566 446.601 174.493 445.491C174.846 445.071 175.477 445.011 175.901 445.361C176.325 445.721 176.383 446.351 176.029 446.771C175.011 447.991 172.077 450.751 167.724 454.651L167.478 454.871L167.232 455.091C165.251 456.861 163.129 458.731 161.007 460.591C160.265 461.231 159.575 461.831 158.956 462.371C158.585 462.691 158.319 462.921 158.178 463.051ZM187.206 453.081C187.655 452.761 188.28 452.861 188.601 453.311C188.922 453.761 188.818 454.391 188.368 454.711C187.298 455.471 186.27 456.101 184.61 457.021C178.993 460.161 177.022 461.541 173.626 465.331C173.009 466.021 171.985 467.831 170.724 470.401C170.478 470.911 170.225 471.431 169.965 471.991C169.217 473.571 168.45 475.281 167.707 476.981C167.448 477.581 167.209 478.131 166.998 478.631C166.871 478.931 166.782 479.141 166.735 479.251C166.522 479.761 165.936 480.001 165.427 479.791C164.917 479.571 164.677 478.991 164.889 478.481C164.938 478.361 165.029 478.151 165.157 477.851C165.371 477.341 165.612 476.781 165.874 476.181C166.624 474.461 167.398 472.741 168.156 471.131C168.42 470.571 168.677 470.041 168.928 469.521C170.275 466.771 171.349 464.881 172.136 464.001C175.717 460.001 177.838 458.521 183.635 455.281C185.235 454.381 186.21 453.791 187.206 453.081ZM194.841 469.751C195.28 470.091 195.907 470.001 196.242 469.571L202.861 460.891C203.196 460.451 203.112 459.821 202.673 459.491C202.234 459.151 201.606 459.241 201.271 459.681L194.652 468.351C194.317 468.791 194.402 469.421 194.841 469.751ZM420.035 453.631C419.664 453.221 419.695 452.591 420.104 452.221C420.513 451.851 421.146 451.881 421.517 452.291C421.552 452.331 421.621 452.401 421.722 452.511C421.89 452.701 422.087 452.911 422.309 453.161C422.945 453.851 423.659 454.621 424.437 455.451C426.658 457.811 428.939 460.181 431.149 462.391C431.749 462.991 432.336 463.571 432.909 464.131C434.145 465.341 435.307 466.441 436.382 467.421C436.79 467.791 436.82 468.421 436.449 468.831C436.077 469.241 435.445 469.271 435.036 468.901C433.943 467.901 432.764 466.791 431.512 465.561C430.933 465.001 430.34 464.411 429.735 463.811C427.508 461.581 425.213 459.201 422.978 456.811C422.196 455.981 421.477 455.201 420.837 454.511C420.613 454.271 420.415 454.051 420.245 453.861L420.095 453.701L420.035 453.631ZM433.374 483.711C433.743 483.301 433.708 482.671 433.297 482.301C433.257 482.261 433.179 482.191 433.065 482.091C432.875 481.921 432.653 481.711 432.403 481.481C431.689 480.831 430.893 480.081 430.035 479.271C427.585 476.931 425.134 474.491 422.85 472.071C421.6 470.741 420.434 469.451 419.366 468.211C417.154 465.651 415.414 463.361 414.247 461.421C413.961 460.951 413.347 460.801 412.874 461.081C412.401 461.371 412.249 461.981 412.534 462.461C413.769 464.501 415.572 466.881 417.852 469.521C418.94 470.781 420.125 472.091 421.394 473.441C423.706 475.891 426.181 478.361 428.656 480.711C429.522 481.541 430.327 482.291 431.049 482.961C431.302 483.191 431.527 483.391 431.721 483.571C431.789 483.631 431.845 483.681 431.888 483.721L431.962 483.791C432.373 484.161 433.005 484.121 433.374 483.711ZM424.948 491.931C425.363 492.291 425.404 492.921 425.039 493.341C424.674 493.751 424.043 493.791 423.628 493.431C423.58 493.391 423.488 493.301 423.357 493.191C423.14 492.991 422.888 492.761 422.604 492.501C421.795 491.761 420.895 490.921 419.925 489.991C417.155 487.331 414.384 484.481 411.796 481.561C409.251 478.701 407.018 475.911 405.185 473.271C403.239 470.461 401.778 467.851 400.871 465.481C400.674 464.971 400.932 464.391 401.448 464.191C401.963 463.991 402.542 464.251 402.739 464.771C403.581 466.971 404.967 469.441 406.829 472.131C408.612 474.701 410.796 477.431 413.292 480.241C415.842 483.111 418.576 485.921 421.311 488.551C422.268 489.471 423.157 490.301 423.954 491.031C424.232 491.281 424.479 491.511 424.691 491.701C424.818 491.811 424.905 491.891 424.948 491.931ZM381.621 467.691C382.104 467.431 382.278 466.821 382.01 466.331C381.931 466.191 381.789 465.921 381.603 465.561C381.293 464.941 380.983 464.271 380.694 463.591C380.358 462.791 380.073 462.021 379.857 461.301C379.675 460.691 379.546 460.141 379.475 459.641C379.397 459.091 378.89 458.711 378.343 458.791C377.797 458.871 377.417 459.371 377.495 459.921C377.581 460.531 377.733 461.181 377.941 461.871C378.18 462.671 378.489 463.511 378.852 464.371C379.159 465.101 379.488 465.801 379.816 466.451C379.932 466.681 380.039 466.891 380.136 467.071C380.194 467.181 380.237 467.261 380.262 467.301C380.53 467.791 381.138 467.961 381.621 467.691Z" fill="#9B7368"/></g></g></g></g></g><g id="Master/Holidays Character/Standing" transform="matrix(-1 0 0 1 1919 378) scale(1 1)"><g id="Master/Holidays Character/Standing"><g id="Holidays Bottom/Standing" transform="translate(0 443) scale(1 1)"><g id="Holidays Bottom/Standing/Running"><g id="Group 11"><path id="Path" fill-rule="evenodd" clip-rule="evenodd" d="M483.768 0C483.768 0 555.798 242.027 559.638 258.357C563.488 274.687 627.828 511.907 627.828 511.907C627.828 511.907 495.298 514.787 473.208 512.867C451.118 510.947 411.738 123.897 411.738 123.897L372.358 291.007C372.358 291.007 365.638 322.707 353.148 333.267C340.668 343.837 275.358 340.957 275.358 340.957L54.4579 329.427C54.4579 329.427 48.6979 182.477 51.5779 173.837C54.0679 166.357 215.668 206.387 258.998 217.267C264.948 218.757 271.038 215.357 272.878 209.507L338.748 0H483.768Z" fill="#E74B33"/><path id="Path (Stroke)" fill-rule="evenodd" clip-rule="evenodd" d="M419.83 105.754C420.351 105.937 420.625 106.508 420.442 107.029L413.942 125.529C413.759 126.05 413.188 126.324 412.667 126.141C412.146 125.958 411.872 125.387 412.055 124.866L418.555 106.366C418.738 105.845 419.309 105.571 419.83 105.754Z" fill="#F3705A"/><path id="Shape" fill-rule="evenodd" clip-rule="evenodd" d="M4.75709 330.927L54.4571 329.147L51.0971 210.697C51.0971 210.697 10.7071 213.747 9.94709 221.367C9.37709 227.027 22.7271 238.077 29.6471 243.397C31.7171 244.987 31.9971 248.007 30.2571 249.947C10.0371 272.487 2.29709 311.337 0.0570922 325.637C-0.392908 328.487 1.87709 331.037 4.75709 330.927ZM639.817 544.167L627.837 511.627L505.207 513.337C505.207 513.337 503.497 546.167 508.627 549.017C512.267 551.037 524.307 539.617 531.017 532.787C533.627 530.137 537.717 529.577 540.897 531.497C571.377 549.977 622.137 549.087 637.037 548.377C639.157 548.277 640.557 546.147 639.817 544.167Z" fill="#010101"/></g></g></g><g id="Holidays Head" transform="translate(268 82) scale(1 1)"><g id="Holidays Head/Elf Hat"><g id="Group 6"><path id="Path" fill-rule="evenodd" clip-rule="evenodd" d="M108.706 50.437C77.1522 50.437 51.573 73.197 51.573 101.277C51.573 105.957 52.2962 110.497 53.6343 114.807L26.5003 83.877C25.5003 109.377 34.0003 130.377 42.5001 137.877C42.5001 137.877 46.5003 142.377 53.0003 142.377C59.5002 142.377 66.0002 137.877 66.0002 137.877L65.9622 137.717C66.9332 137.097 68.2042 137.127 69.1132 137.907C76.8332 144.517 86.6302 149.217 97.5542 151.137C98.9582 151.387 99.9502 152.657 99.8682 154.077L98.3082 181.877H124.747L123.523 159.937C123.226 154.757 126.263 149.897 131.12 148.047C151.533 140.297 165.839 122.267 165.839 101.277C165.839 73.197 140.26 50.437 108.706 50.437Z" fill="#8d574d"/><path id="Path" fill-rule="evenodd" clip-rule="evenodd" d="M137.425 36.4071C56.199 30.2271 48.6951 79.6771 48.6951 79.6771C48.6951 79.6771 44.9181 100.537 54.9731 117.697C56.092 119.607 57.057 121.017 57.892 122.037L60.178 125.437C61.365 127.207 63.384 128.227 65.511 128.147L69.01 128.017C71.217 127.817 72.702 125.667 72.111 123.527L68.057 108.907C76.154 99.9571 76.637 77.0171 76.637 77.0171C79.436 78.4171 82.88 79.4971 86.734 80.3071C124.404 91.5371 151.071 87.6071 164.516 83.7971C172.543 81.5271 179.524 76.3371 183.587 69.0571C190.049 57.4671 189.883 40.4071 137.425 36.4071Z" fill="#F2B08F"/><path id="Path_2" d="M160.5 39.3771L51 109.877L27.5 12.8771C46.3 11.6771 122.833 19.8771 160.5 39.3771Z" fill="#2F6858"/><circle id="Oval" cx="28.0291" cy="16.1473" r="17.0291" fill="#E58857"/><path id="Path_3" fill-rule="evenodd" clip-rule="evenodd" d="M11.0306 17.1773C11.0103 16.8373 11 16.4973 11 16.1473C11 13.8773 11.4428 11.7173 12.2466 9.7373L16.2982 11.4473C18.1282 12.2173 19.009 14.3073 18.2826 16.1573C17.5336 18.0573 15.3667 18.9773 13.4762 18.1973L11.0306 17.1773Z" fill="#583318"/><rect id="Rectangle" x="31" y="-4.12305" width="7.42448" height="39.4181" rx="1" transform="rotate(19.2301 31 -4.12305)" fill="#E58857"/></g></g></g><g id="Expression" transform="translate(351 173) scale(0.989010989010989 1)"><g id="Expression/Moustache"><g id="Moustache"><path id="Stroke 9" fill-rule="evenodd" clip-rule="evenodd" d="M31.8101 34.1706L64.6001 35.5736C66.0781 35.6376 67.4451 36.3696 68.3171 37.5656L77.9871 51.8766C77.9871 51.8766 57.2611 55.6596 46.4041 41.3486C46.4041 41.3486 36.0781 55.6726 15.5371 49.9546L27.9811 35.7866C28.9511 34.7016 30.3561 34.1086 31.8101 34.1706Z" fill="#010101"/></g><path id="Path Copy 2" fill-rule="evenodd" clip-rule="evenodd" d="M78.5211 22.2237C78.1968 19.0313 75.3473 16.7062 72.1558 17.0304L56.1917 18.6495C53.0002 18.9729 50.6753 21.8228 50.9988 25.0149C51.3223 28.2067 54.1724 30.532 57.3641 30.2078L73.328 28.5888C76.5196 28.2644 78.8446 25.4145 78.5211 22.2237Z" fill="#F4F0F0"/><path id="Stroke 8 Copy" fill-rule="evenodd" clip-rule="evenodd" d="M78.5214 22.2237C78.197 19.0313 75.3475 16.7062 72.156 17.0304L56.1919 18.6494C53.0004 18.9729 50.6755 21.8228 50.999 25.0148C51.3225 28.2067 54.1726 30.532 57.3643 30.2077L73.3282 28.5888C76.5199 28.2644 78.8448 25.4145 78.5214 22.2237ZM73.6313 31.5734L57.6673 33.1924C52.8271 33.6841 48.5049 30.1578 48.0143 25.3173C47.5238 20.477 51.0494 16.1552 55.8893 15.6647L71.8531 14.0458C76.6929 13.5541 81.0142 17.08 81.506 21.9208C81.9966 26.7601 78.4711 31.0817 73.6313 31.5734Z" fill="#010101"/><path id="Fill 10 Copy" fill-rule="evenodd" clip-rule="evenodd" d="M72.0043 15.5377L67.1343 16.3357L65.8613 30.7527L73.4793 30.0807C77.4953 29.6737 80.4213 26.0877 80.0133 22.0717C79.6063 18.0557 76.0203 15.1307 72.0043 15.5377" fill="#010101"/><path id="Path Copy" fill-rule="evenodd" clip-rule="evenodd" d="M36.3121 30.0145C39.511 30.2553 42.3 27.8574 42.5416 24.6587C42.7824 21.4596 40.3845 18.6706 37.1856 18.429L21.1847 17.2231C17.9855 16.9822 15.1969 19.3803 14.9561 22.5799C14.7153 25.779 17.1132 28.5677 20.3121 28.8085L36.3121 30.0145Z" fill="#F4F0F0"/><path id="Stroke 12 Copy" fill-rule="evenodd" clip-rule="evenodd" d="M36.3122 30.0145C39.5111 30.2554 42.3001 27.8574 42.5417 24.6587C42.7825 21.4597 40.3846 18.6707 37.1858 18.4291L21.1849 17.2231C17.9857 16.9822 15.1971 19.3803 14.9563 22.5799C14.7154 25.779 17.1134 28.5677 20.3122 28.8085L36.3122 30.0145ZM36.0869 33.0061L20.0869 31.8001C15.2359 31.4349 11.5995 27.2059 11.9647 22.3547C12.3299 17.5029 16.5587 13.8663 21.4102 14.2315L37.4115 15.4376C42.2624 15.8039 45.8984 20.0329 45.5332 24.8843C45.1668 29.7352 40.9378 33.3712 36.0869 33.0061Z" fill="#010101"/><path id="Fill 14 Copy" fill-rule="evenodd" clip-rule="evenodd" d="M37.2982 16.9337L29.4102 16.3387L29.5692 30.9347L36.1992 31.5107C40.2252 31.8137 43.7342 28.7967 44.0372 24.7707C44.3402 20.7467 41.3232 17.2367 37.2982 16.9337" fill="#010101"/></g></g><g id="Holidays Body" transform="translate(87 44) scale(1 1)"><g id="Holidays Body/Dialogue"><g id="Scarf"><g id="Body"><path id="Skin" fill-rule="evenodd" clip-rule="evenodd" d="M267 218.426C267 218.426 279.059 243.646 309.033 242.575C339.007 241.505 346.876 219.322 346.876 219.322C346.876 219.322 312.13 214.76 267 218.426ZM183.052 232.511C183.052 232.511 183.427 232.367 184.157 232.109C141.459 241.171 76.4424 257.881 61.6394 278.067C39.1555 308.727 53.4634 338.706 93.6625 378.224C133.862 417.741 177.005 429.494 177.005 429.494C177.005 429.494 143.882 456.236 143.169 457.66C141.256 461.486 147.632 465.948 152.094 465.63C152.094 465.63 139.944 482.086 140.3 486.35C140.461 488.281 147.95 496.232 160.382 482.205L157.618 491.567C156.733 494.565 157.491 497.896 159.805 499.997C161.89 501.891 164.891 502.748 168.556 498.605C173.278 493.267 175.077 489.616 176.539 486.651C177.347 485.012 178.052 483.582 179.091 482.192C181.648 478.765 190.017 472.299 190.017 472.299C189.273 473.617 187.952 475.705 186.39 478.173C181.424 486.024 174.025 497.718 175.049 500.698C175.512 502.047 178.91 505.38 189.748 497.092C200.586 488.804 213.934 462.761 213.934 462.761C213.934 462.761 211.181 488.631 214.369 491.181C215.431 492.032 217.157 491.775 218.987 491.056C223.669 489.215 226.972 484.954 227.899 480.01L234.061 447.152C238.046 430.5 235.52 412.821 226.452 398.297C222.262 391.587 216.398 385.002 208.197 379.563C177.914 359.481 138.387 325.692 138.387 325.692L217.053 298.212L216.827 297.095L183.052 232.511ZM704.251 407.881C705.55 409.117 705.325 413.026 704.616 414.445C702.47 418.737 696.228 421.293 696.228 421.293C696.228 421.293 703.772 421.532 704.012 424.406C704.159 426.178 704.027 430.187 700.18 432.668C693.951 436.684 680.078 440.757 663.895 441.94C637.716 443.856 594.994 440.541 594.994 440.541C594.994 440.541 503.408 444.924 457.989 405.559C457.989 405.559 403.484 353.326 392.129 320.018L390.938 316.616L420.867 251.44C420.767 251.328 420.665 251.219 420.563 251.111C420.479 251.022 420.395 250.934 420.313 250.843C441.219 268.621 468.555 299.836 493.563 339.209L597.75 382.528L654.18 370.914C654.18 370.914 675.084 366.715 672.645 374.569C671.728 377.519 669.524 379.893 666.755 381.265C661.98 383.632 653.241 387.849 649.782 388.785C654.449 387.758 661.343 386.26 667.502 384.922C673.216 383.681 678.299 382.577 680.384 382.113C681.441 381.878 683.105 381.403 685.045 380.849C690.986 379.151 699.517 376.713 701.128 378.178C703.751 380.562 703.449 387.89 699.012 390.541C699.012 390.541 706.374 388.67 707.289 391.748C708.795 396.81 705.329 403.211 696.588 406.444C696.588 406.444 701.89 405.633 704.251 407.881Z" fill="#8d574d"/><path id="Exclude" fill-rule="evenodd" clip-rule="evenodd" d="M267 218.426C267 218.426 279.059 243.646 309.033 242.575C337.633 241.554 346.108 221.31 346.825 219.457C376.481 223.041 400.868 231.797 420.867 251.44L407.639 280.246L390.265 318.081L410.064 413.512C410.064 413.512 331.598 444.311 235 418.409C234.635 418.077 233.869 415.93 232.848 413.07C231.077 408.104 228.538 400.99 226 397.5L222.27 392.5L216.894 298.267L138.387 325.691C138.387 325.691 177.914 359.48 208.197 379.562L167.5 431C167.5 431 133.862 417.74 93.6625 378.223C53.4634 338.705 39.1555 308.726 61.6394 278.066C76.4424 257.88 141.459 241.17 184.157 232.108C183.427 232.366 183.052 232.511 183.052 232.511C183.052 232.511 215.074 221.522 270.068 218.188C269.051 218.263 268.028 218.342 267 218.426ZM270.068 218.188C313.695 214.965 346.876 219.322 346.876 219.322C346.876 219.322 346.859 219.368 346.825 219.457C332.928 217.778 317.875 217.235 301.574 217.24C290.378 217.243 279.859 217.594 270.068 218.188ZM407.639 280.246L390.938 316.616L392.129 320.018C403.484 353.326 457.989 405.559 457.989 405.559C503.408 444.924 587.5 446 587.5 446L593 380L493.563 339.209C468.555 299.836 441.219 268.621 420.313 250.843C420.395 250.933 420.478 251.021 420.561 251.109L420.563 251.111C420.665 251.219 420.768 251.328 420.867 251.44L407.639 280.246Z" fill="#F3705A"/><path id="Skin Shadows" fill-rule="evenodd" clip-rule="evenodd" d="M641.277 408.961C642.122 403.361 642.268 397.448 642.013 392.129C641.998 391.806 641.981 391.506 641.965 391.23L656.315 387.941C656.854 387.818 657.19 387.281 657.067 386.743C656.943 386.205 656.407 385.868 655.868 385.992L640.685 389.472C640.2 389.583 639.871 390.034 639.912 390.53C639.918 390.603 639.93 390.751 639.944 390.967C639.968 391.33 639.993 391.751 640.015 392.225C640.265 397.423 640.122 403.214 639.299 408.662C638.675 412.794 637.697 416.361 636.324 419.188C636.083 419.684 636.29 420.283 636.787 420.524C637.284 420.765 637.882 420.558 638.123 420.061C639.596 417.029 640.625 413.277 641.277 408.961ZM656.737 401.385C656.765 401.937 657.235 402.361 657.787 402.333C669.808 401.723 694.737 394.97 700.552 390.512C700.991 390.176 701.073 389.549 700.737 389.11C700.401 388.672 699.774 388.589 699.335 388.925C693.901 393.091 669.339 399.744 657.685 400.336C657.134 400.364 656.709 400.834 656.737 401.385ZM697.545 406.155C697.385 405.626 696.827 405.327 696.299 405.487C696.17 405.526 695.915 405.6 695.543 405.705C694.919 405.881 694.196 406.078 693.38 406.29C691.047 406.896 688.451 407.502 685.658 408.067C677.996 409.62 670.353 410.577 663.234 410.647C662.637 410.653 662.045 410.652 661.459 410.645C660.907 410.638 660.454 411.081 660.447 411.633C660.44 412.185 660.883 412.638 661.435 412.645C662.036 412.652 662.642 412.653 663.253 412.647C670.515 412.576 678.279 411.603 686.056 410.028C688.885 409.454 691.517 408.84 693.883 408.225C694.712 408.01 695.45 407.81 696.086 407.63C696.471 407.522 696.737 407.444 696.877 407.401C697.406 407.241 697.705 406.683 697.545 406.155ZM695.914 420.343C696.439 420.17 697.004 420.454 697.178 420.978C697.351 421.503 697.067 422.068 696.543 422.242C696.447 422.274 696.267 422.331 696.008 422.412C695.58 422.544 695.086 422.691 694.53 422.849C692.945 423.301 691.185 423.752 689.295 424.172C684.24 425.298 679.199 426.006 674.477 426.092C670.804 426.158 667.461 425.84 664.522 425.082C663.987 424.944 663.665 424.399 663.803 423.864C663.941 423.329 664.487 423.007 665.021 423.145C667.769 423.854 670.936 424.155 674.44 424.092C679.012 424.009 683.926 423.319 688.861 422.22C690.711 421.808 692.433 421.367 693.982 420.926C694.523 420.772 695.003 420.629 695.417 420.501L695.517 420.47L695.588 420.448C695.742 420.399 695.852 420.364 695.914 420.343ZM181.776 456.422C182.225 456.101 182.85 456.205 183.171 456.655C183.492 457.104 183.388 457.729 182.938 458.05C181.869 458.814 180.84 459.436 179.182 460.363C173.564 463.501 171.592 464.879 168.196 468.675C167.579 469.365 166.554 471.172 165.293 473.747C165.048 474.249 164.795 474.776 164.536 475.326C163.787 476.914 163.02 478.618 162.277 480.321C162.017 480.918 161.779 481.472 161.568 481.969C161.441 482.266 161.352 482.479 161.305 482.591C161.092 483.1 160.506 483.341 159.996 483.128C159.487 482.915 159.246 482.329 159.459 481.819C159.508 481.703 159.599 481.487 159.727 481.186C159.941 480.684 160.182 480.124 160.444 479.522C161.194 477.802 161.968 476.081 162.726 474.473C162.99 473.914 163.247 473.378 163.497 472.867C164.845 470.116 165.919 468.221 166.706 467.341C170.287 463.339 172.409 461.856 178.207 458.617C179.806 457.724 180.78 457.133 181.776 456.422ZM151.337 466.283C151.698 466.701 152.329 466.747 152.747 466.387C152.889 466.264 153.155 466.034 153.526 465.712C154.145 465.175 154.835 464.574 155.577 463.926C157.699 462.072 159.821 460.201 161.802 458.431L162.109 458.157L162.294 457.991C166.647 454.09 169.581 451.331 170.599 450.11C170.953 449.685 170.895 449.055 170.471 448.701C170.046 448.348 169.416 448.405 169.062 448.83C168.136 449.942 165.216 452.688 160.959 456.501L160.853 456.596L160.469 456.94C158.494 458.705 156.378 460.571 154.261 462.42C153.521 463.067 152.833 463.666 152.215 464.201C151.845 464.523 151.581 464.751 151.44 464.873C151.022 465.234 150.976 465.865 151.337 466.283ZM190.812 472.905C190.477 473.344 189.85 473.429 189.411 473.093C188.971 472.758 188.887 472.131 189.222 471.692L195.842 463.017C196.177 462.578 196.805 462.494 197.244 462.829C197.683 463.164 197.767 463.791 197.432 464.23L190.812 472.905ZM176.063 429.831C176.249 430.351 176.822 430.621 177.342 430.435L186.376 427.2C186.896 427.014 187.166 426.442 186.98 425.922C186.794 425.402 186.221 425.131 185.701 425.317L176.667 428.552C176.147 428.739 175.877 429.311 176.063 429.831Z" fill="#D7A17C"/></g><path id="Stroke 27" d="M138.716 324.747C139.238 324.929 139.513 325.499 139.331 326.02C139.15 326.542 138.579 326.817 138.058 326.635L125.818 322.367C125.297 322.186 125.021 321.615 125.203 321.094C125.385 320.572 125.955 320.297 126.476 320.479L138.716 324.747Z" fill="#F2B08F"/><path id="Vector 109" d="M251.488 358.27C246.407 337.549 254.209 264.325 258.746 230.303C271.973 223.395 298.066 228.505 295.776 232.101C287.386 245.277 304.306 388.791 296.945 394.273C289.583 399.756 257.839 384.172 251.488 358.27Z" fill="#2F6858"/><path id="Vector 114" d="M296.639 322.688C289.006 302.765 287.709 256.138 287.955 221.817C300.214 213.308 325.834 220.17 324.012 224.024C317.336 238.146 346.486 301.69 344.965 312.584C343.996 319.523 303.242 339.924 296.639 322.688Z" fill="#2F6858"/><path id="Vector 110 (Stroke)" fill-rule="evenodd" clip-rule="evenodd" d="M255.801 345.491C257.457 345.453 258.831 346.765 258.868 348.422C258.954 352.165 259.889 359.22 260.896 366.814C261.116 368.478 261.34 370.168 261.56 371.855C262.16 376.468 262.715 381.007 263.028 384.741C263.185 386.606 263.285 388.316 263.295 389.757C263.305 391.118 263.242 392.516 262.945 393.608C262.509 395.206 260.86 396.149 259.262 395.714C257.663 395.278 256.72 393.629 257.156 392.031C257.221 391.792 257.305 391.106 257.296 389.801C257.287 388.576 257.2 387.036 257.049 385.243C256.749 381.658 256.209 377.238 255.61 372.628C255.402 371.03 255.186 369.402 254.97 367.777C253.962 360.187 252.964 352.666 252.87 348.559C252.832 346.902 254.144 345.529 255.801 345.491Z" fill="#2F6858"/><path id="Vector 115 (Stroke)" fill-rule="evenodd" clip-rule="evenodd" d="M304.42 301.001C306.076 300.963 307.45 302.275 307.488 303.932C307.573 307.675 308.508 314.73 309.515 322.323C309.736 323.988 309.96 325.678 310.179 327.364C310.779 331.978 311.334 336.517 311.647 340.251C311.804 342.116 311.904 343.825 311.915 345.267C311.924 346.628 311.861 348.026 311.564 349.118C311.128 350.716 309.479 351.659 307.881 351.224C306.282 350.788 305.339 349.139 305.775 347.54C305.84 347.302 305.924 346.616 305.915 345.311C305.906 344.086 305.819 342.546 305.668 340.752C305.368 337.168 304.828 332.748 304.229 328.138C304.021 326.54 303.805 324.911 303.589 323.287C302.581 315.697 301.583 308.176 301.489 304.068C301.451 302.412 302.763 301.039 304.42 301.001Z" fill="#2F6858"/><path id="Vector 111 (Stroke)" fill-rule="evenodd" clip-rule="evenodd" d="M268.424 357.985C270.08 357.947 271.454 359.259 271.491 360.915C271.708 370.42 273.495 394.196 274.627 400.362C274.926 401.992 273.848 403.555 272.218 403.855C270.588 404.154 269.025 403.075 268.726 401.446C267.506 394.804 265.712 370.648 265.493 361.052C265.455 359.396 266.767 358.022 268.424 357.985Z" fill="#2F6858"/><path id="Vector 116 (Stroke)" fill-rule="evenodd" clip-rule="evenodd" d="M318.687 302.001C320.344 301.963 321.717 303.275 321.755 304.932C321.829 308.162 322.39 313.102 323.021 318.649C323.291 321.023 323.574 323.509 323.836 326.019C324.265 330.128 324.632 334.252 324.763 337.876C324.89 341.418 324.807 344.784 324.196 347.227C323.795 348.835 322.166 349.812 320.559 349.411C318.951 349.009 317.974 347.38 318.375 345.773C318.764 344.216 318.892 341.588 318.766 338.091C318.644 334.676 318.294 330.715 317.869 326.643C317.629 324.347 317.361 321.996 317.1 319.694C316.451 313.989 315.837 308.586 315.757 305.068C315.719 303.412 317.031 302.039 318.687 302.001Z" fill="#2F6858"/><path id="Vector 112 (Stroke)" fill-rule="evenodd" clip-rule="evenodd" d="M281.828 360.297C283.484 360.259 284.858 361.571 284.896 363.227C284.984 367.092 285.612 374.43 286.291 382.358C286.43 383.975 286.57 385.617 286.709 387.259C287.507 396.719 288.259 406.386 287.972 410.495C287.857 412.148 286.423 413.394 284.77 413.279C283.118 413.163 281.871 411.73 281.987 410.077C282.233 406.556 281.552 397.502 280.73 387.763C280.595 386.164 280.457 384.552 280.32 382.952C279.642 375.037 278.99 367.438 278.897 363.364C278.859 361.708 280.172 360.335 281.828 360.297Z" fill="#2F6858"/><path id="Vector 117 (Stroke)" fill-rule="evenodd" clip-rule="evenodd" d="M329.836 291.001C331.492 290.963 332.866 292.275 332.904 293.932C332.992 297.796 333.62 305.134 334.299 313.062C334.438 314.679 334.578 316.321 334.717 317.963C335.515 327.424 336.267 337.09 335.98 341.199C335.865 342.852 334.431 344.098 332.778 343.983C331.125 343.867 329.879 342.434 329.995 340.781C330.241 337.26 329.56 328.206 328.738 318.467C328.603 316.868 328.465 315.256 328.328 313.656C327.649 305.741 326.998 298.142 326.905 294.068C326.867 292.412 328.179 291.039 329.836 291.001Z" fill="#2F6858"/><path id="Vector 113 (Stroke)" fill-rule="evenodd" clip-rule="evenodd" d="M297.441 371.398C299.098 371.36 300.471 372.672 300.509 374.329C300.549 376.062 300.571 377.994 300.594 380.053C300.637 383.826 300.685 388.022 300.854 392.19C301.118 398.684 301.666 404.52 302.775 407.947C303.285 409.523 302.421 411.215 300.845 411.725C299.268 412.235 297.577 411.371 297.067 409.795C295.669 405.478 295.12 398.852 294.859 392.433C294.687 388.196 294.636 383.795 294.592 379.959C294.569 377.935 294.547 376.068 294.511 374.465C294.473 372.809 295.785 371.436 297.441 371.398Z" fill="#2F6858"/><path id="Vector 118 (Stroke)" fill-rule="evenodd" clip-rule="evenodd" d="M337.774 290.058C339.399 289.735 340.978 290.791 341.301 292.416C341.724 294.549 342.439 296.807 343.311 299.381C343.481 299.881 343.656 300.394 343.836 300.918C344.562 303.038 345.353 305.346 346.069 307.797C347.878 313.985 349.282 321.282 348.489 330.264C348.344 331.915 346.888 333.135 345.237 332.989C343.587 332.843 342.367 331.387 342.513 329.737C343.22 321.719 341.983 315.201 340.31 309.481C339.636 307.174 338.901 305.028 338.179 302.919C337.994 302.38 337.811 301.843 337.629 301.306C336.753 298.721 335.922 296.137 335.415 293.585C335.093 291.96 336.148 290.381 337.774 290.058Z" fill="#2F6858"/><path id="Vector 108" d="M241.499 229C240.299 208.2 248.999 203.667 253.499 204C284.666 204 349.299 205.3 358.499 210.5C369.999 217 358.999 241.5 351.999 251C344.999 260.5 242.999 255 241.499 229Z" fill="#2F6858"/><path id="Vector 119 (Stroke)" fill-rule="evenodd" clip-rule="evenodd" d="M494.355 338.482C494.641 338.954 494.491 339.569 494.018 339.855L477.518 349.855C477.046 350.141 476.431 349.991 476.145 349.518C475.858 349.046 476.009 348.431 476.482 348.145L492.982 338.145C493.454 337.858 494.069 338.009 494.355 338.482Z" fill="#F2B08F"/></g></g></g></g></g><g id="Floor Objects" transform="translate(94 969) scale(1 1)"><g id="Floor Objects/Presents"><g id="Presents"><path id="Path" d="M34 194.147H163.5V405H34V194.147Z" fill="#F2B08F"/><g id="Clipped"><mask id="mask0_711_1433190c6e301f-0d3c-411e-8f5b-3ac2744031f4" style="mask-type:luminance" maskUnits="userSpaceOnUse" x="34" y="194" width="130" height="211" fill="#ffffff"><path id="Path_2" fill-rule="evenodd" clip-rule="evenodd" d="M34 194.147H163.5V405H34V194.147Z" fill="#ffffff"/></mask><g mask="url(#mask0_711_1433190c6e301f-0d3c-411e-8f5b-3ac2744031f4)"><g id="Group"><path id="Path_3" d="M129.732 176.616L152.058 193.884L13.0673 373.574L-9.25781 356.306L129.732 176.616Z" fill="#E74B33"/><path id="Path_4" d="M175.642 222.755L200.937 235.276L100.16 438.87L74.8652 426.349L175.642 222.755Z" fill="#E74B33"/></g></g></g><path id="Path (Stroke)" fill-rule="evenodd" clip-rule="evenodd" d="M104.9 173.285C106.126 171.608 107.179 170.874 107.92 170.556ZM107.92 170.556C108.61 170.261 109.318 170.199 110.177 170.402ZM110.177 170.402C112.158 170.869 114.844 172.753 117.699 176.316ZM117.699 176.316C120.445 179.741 122.857 184.112 124.474 188.373ZM124.474 188.373C125.105 190.035 125.58 191.588 125.914 192.991ZM125.914 192.991C117.512 191.079 110.715 188.215 106.651 184.893C104.191 182.882 103.132 181.039 102.856 179.507C102.6 178.086 102.861 176.074 104.9 173.285M133.767 184.846C135.656 189.822 136.878 195.252 136.335 199.7L135.711 204.806L130.63 204.007C118.688 202.13 107.406 198.347 100.361 192.589C96.7818 189.664 93.9087 185.903 93.0737 181.27C92.2186 176.525 93.667 171.81 96.8747 167.42L96.8748 167.42C98.8715 164.688 101.238 162.605 104.009 161.419C106.831 160.211 109.728 160.083 112.458 160.727C117.657 161.953 122.093 165.906 125.455 170.099C128.927 174.431 131.827 179.735 133.767 184.846Z" fill="#E74B33"/><path id="Path (Stroke)_2" fill-rule="evenodd" clip-rule="evenodd" d="M164.671 151.71C172.1 150.861 178.887 155.013 184.675 163.19L184.675 163.19C188.568 168.691 189.771 174.418 187.745 179.884C185.858 184.978 181.522 188.811 176.746 191.713C167.15 197.543 152.917 201.309 140.443 203.614L134.877 204.643L134.577 198.991C134.336 194.441 135.759 188.021 138.011 181.761C140.309 175.371 143.717 168.462 147.978 162.905C152.112 157.513 157.742 152.501 164.671 151.71ZM145.203 192.51C155.289 190.277 165.043 187.193 171.585 183.218C175.586 180.788 177.679 178.444 178.425 176.431C179.033 174.79 179.073 172.481 176.562 168.932C171.851 162.276 168.159 161.316 165.799 161.585C162.94 161.912 159.471 164.251 155.866 168.953C152.387 173.489 149.416 179.419 147.364 185.125C146.391 187.829 145.676 190.339 145.203 192.51Z" fill="#E74B33"/><path id="Path_5" d="M144 258.982H300V404.982H144V258.982Z" fill="#3973B0"/><path id="Path (Stroke)_3" fill-rule="evenodd" clip-rule="evenodd" d="M203.162 239.1C200.089 238.56 195.647 238.928 189.376 241.311L189.376 241.311C186.199 242.518 184.28 243.588 183.219 244.423C183.072 244.538 182.951 244.641 182.852 244.731C183.494 245.348 184.655 246.14 186.455 247.028C192.746 250.131 203.4 252.79 212.882 254.531C212.76 250.257 211.767 245.868 209.518 242.898C208.092 241.015 206.111 239.617 203.162 239.1ZM182.444 244.258C182.445 244.258 182.45 244.266 182.458 244.283C182.447 244.266 182.444 244.258 182.444 244.258ZM182.447 245.176C182.44 245.189 182.436 245.196 182.436 245.196C182.435 245.196 182.439 245.189 182.447 245.176ZM216.693 237.464C221.887 244.323 222.376 253.997 221.598 260.366L221.033 264.989L216.432 264.266C205.892 262.608 191.219 259.413 182.474 255.1C180.262 254.009 178.14 252.71 176.533 251.14C174.945 249.588 173.348 247.244 173.546 244.217C173.741 241.222 175.606 238.96 177.656 237.348C179.742 235.708 182.617 234.251 186.179 232.898M216.693 237.464C213.969 233.867 210.024 231.166 204.717 230.235ZM204.717 230.235C199.533 229.325 193.386 230.159 186.179 232.898Z" fill="#94C0E9"/><path id="Path (Stroke)_4" fill-rule="evenodd" clip-rule="evenodd" d="M244.24 231.542C249.652 230.936 254.418 233.614 257.974 239.016L257.974 239.016C261.028 243.655 262.17 248.486 260.023 252.93C258.076 256.96 253.998 259.321 250.188 260.832C243.731 263.392 234.856 264.665 227.728 265.687C226.36 265.883 225.056 266.07 223.846 266.255L217.656 267.202L218.733 261.034C219.261 258.003 220.971 253.975 223.156 250.106C225.39 246.151 228.377 241.906 231.799 238.488C235.112 235.18 239.394 232.084 244.24 231.542ZM230.069 256.244C236.204 255.33 242.315 254.272 246.87 252.466C250.137 251.171 251.496 249.892 251.919 249.015C252.144 248.551 252.591 247.206 250.457 243.965C248.267 240.638 246.478 240.348 245.24 240.486C243.436 240.688 240.972 242.047 238.159 244.856C235.455 247.557 232.935 251.093 230.993 254.532C230.661 255.119 230.353 255.691 230.069 256.244Z" fill="#94C0E9"/><g id="Clipped_2"><mask id="mask1_711_1433190c6e301f-0d3c-411e-8f5b-3ac2744031f4" style="mask-type:luminance" maskUnits="userSpaceOnUse" x="144" y="258" width="156" height="147" fill="#ffffff"><path id="Path_6" fill-rule="evenodd" clip-rule="evenodd" d="M144 258.982H300V404.982H144V258.982Z" fill="#ffffff"/></mask><g mask="url(#mask1_711_1433190c6e301f-0d3c-411e-8f5b-3ac2744031f4)"><g id="Group_2"><circle id="Oval" cx="149" cy="365.982" r="13" fill="#F3705A"/><circle id="Oval_2" cx="199" cy="397.982" r="13" fill="#F3705A"/><circle id="Oval_3" cx="223" cy="345" r="13" fill="#F3705A"/><circle id="Oval_4" cx="246" cy="385" r="13" fill="#F3705A"/><circle id="Oval_5" cx="293" cy="399" r="13" fill="#F3705A"/><circle id="Oval_6" cx="300" cy="335.982" r="13" fill="#F3705A"/><circle id="Oval_7" cx="250" cy="298.982" r="13" fill="#F3705A"/><circle id="Oval_8" cx="169" cy="297.982" r="13" fill="#F3705A"/><circle id="Oval_9" cx="182" cy="338.982" r="13" fill="#F3705A"/></g></g></g><rect id="Rectangle" x="136" y="258.982" width="177" height="34" fill="#94C0E9"/><rect id="Rectangle_2" x="263" y="305" width="102" height="100" fill="#5BA092"/><path id="Path (Stroke)_5" fill-rule="evenodd" clip-rule="evenodd" d="M366.413 318.322C366.788 318.728 366.762 319.36 366.357 319.735L325.957 357.027L365.235 337.604C365.73 337.359 366.33 337.562 366.575 338.057C366.819 338.552 366.617 339.152 366.122 339.396L320.622 361.896L319.5 360.265L365 318.265C365.406 317.891 366.038 317.916 366.413 318.322Z" fill="#E74B33"/><path id="Path (Stroke)_6" fill-rule="evenodd" clip-rule="evenodd" d="M324 360.877L324.48 359H366.48C367.033 359 367.48 359.448 367.48 360C367.48 360.552 367.033 361 366.48 361H328.388L366.961 382.123C367.445 382.388 367.623 382.996 367.357 383.48C367.092 383.965 366.484 384.142 366 383.877L324 360.877Z" fill="#E74B33"/><path id="Path (Stroke)_7" fill-rule="evenodd" clip-rule="evenodd" d="M262.048 338.694C262.218 338.168 262.781 337.879 263.307 338.048L306.807 352.048L306.592 353.996L263.092 357.996C262.542 358.047 262.055 357.642 262.004 357.092C261.954 356.542 262.359 356.055 262.909 356.004L301.535 352.453L262.694 339.952C262.168 339.783 261.879 339.22 262.048 338.694Z" fill="#E74B33"/><path id="Path (Stroke)_8" fill-rule="evenodd" clip-rule="evenodd" d="M313.07 360.371L264.268 373.927C263.736 374.075 263.185 373.763 263.037 373.231C262.889 372.699 263.2 372.148 263.733 372L317.733 357L318.595 358.767L264.595 398.767C264.152 399.096 263.525 399.003 263.197 398.559C262.868 398.115 262.961 397.489 263.405 397.16L313.07 360.371Z" fill="#E74B33"/><path id="Path_7" d="M324.557 342.633L321.003 328.32L315.246 338.573L302.546 330.588L303.251 345.889L291.193 348.748L299.444 359.447L292.011 368.475L308.329 369.01L315.936 381.484L319.892 368.93L333.699 376.01L331.548 361.821L342.519 360.662L332.77 351.857L334.691 339.448L324.557 342.633Z" fill="#F3705A"/></g></g></g><g id="Floor Objects" transform="matrix(-1 0 0 1 2211 969) scale(1 1)"><g id="Floor Objects/Presents"><g id="Presents"><path id="Path" d="M34 194.147H163.5V405H34V194.147Z" fill="#F2B08F"/><g id="Clipped"><mask id="mask0_711_1433190c6e301f-0d3c-411e-8f5b-3ac2744031f4" style="mask-type:luminance" maskUnits="userSpaceOnUse" x="34" y="194" width="130" height="211" fill="#ffffff"><path id="Path_2" fill-rule="evenodd" clip-rule="evenodd" d="M34 194.147H163.5V405H34V194.147Z" fill="#ffffff"/></mask><g mask="url(#mask0_711_1433190c6e301f-0d3c-411e-8f5b-3ac2744031f4)"><g id="Group"><path id="Path_3" d="M129.732 176.616L152.058 193.884L13.0673 373.574L-9.25781 356.306L129.732 176.616Z" fill="#E74B33"/><path id="Path_4" d="M175.642 222.755L200.937 235.276L100.16 438.87L74.8652 426.349L175.642 222.755Z" fill="#E74B33"/></g></g></g><path id="Path (Stroke)" fill-rule="evenodd" clip-rule="evenodd" d="M104.9 173.285C106.126 171.608 107.179 170.874 107.92 170.556ZM107.92 170.556C108.61 170.261 109.318 170.199 110.177 170.402ZM110.177 170.402C112.158 170.869 114.844 172.753 117.699 176.316ZM117.699 176.316C120.445 179.741 122.857 184.112 124.474 188.373ZM124.474 188.373C125.105 190.035 125.58 191.588 125.914 192.991ZM125.914 192.991C117.512 191.079 110.715 188.215 106.651 184.893C104.191 182.882 103.132 181.039 102.856 179.507C102.6 178.086 102.861 176.074 104.9 173.285M133.767 184.846C135.656 189.822 136.878 195.252 136.335 199.7L135.711 204.806L130.63 204.007C118.688 202.13 107.406 198.347 100.361 192.589C96.7818 189.664 93.9087 185.903 93.0737 181.27C92.2186 176.525 93.667 171.81 96.8747 167.42L96.8748 167.42C98.8715 164.688 101.238 162.605 104.009 161.419C106.831 160.211 109.728 160.083 112.458 160.727C117.657 161.953 122.093 165.906 125.455 170.099C128.927 174.431 131.827 179.735 133.767 184.846Z" fill="#E74B33"/><path id="Path (Stroke)_2" fill-rule="evenodd" clip-rule="evenodd" d="M164.671 151.71C172.1 150.861 178.887 155.013 184.675 163.19L184.675 163.19C188.568 168.691 189.771 174.418 187.745 179.884C185.858 184.978 181.522 188.811 176.746 191.713C167.15 197.543 152.917 201.309 140.443 203.614L134.877 204.643L134.577 198.991C134.336 194.441 135.759 188.021 138.011 181.761C140.309 175.371 143.717 168.462 147.978 162.905C152.112 157.513 157.742 152.501 164.671 151.71ZM145.203 192.51C155.289 190.277 165.043 187.193 171.585 183.218C175.586 180.788 177.679 178.444 178.425 176.431C179.033 174.79 179.073 172.481 176.562 168.932C171.851 162.276 168.159 161.316 165.799 161.585C162.94 161.912 159.471 164.251 155.866 168.953C152.387 173.489 149.416 179.419 147.364 185.125C146.391 187.829 145.676 190.339 145.203 192.51Z" fill="#E74B33"/><path id="Path_5" d="M144 258.982H300V404.982H144V258.982Z" fill="#3973B0"/><path id="Path (Stroke)_3" fill-rule="evenodd" clip-rule="evenodd" d="M203.162 239.1C200.089 238.56 195.647 238.928 189.376 241.311L189.376 241.311C186.199 242.518 184.28 243.588 183.219 244.423C183.072 244.538 182.951 244.641 182.852 244.731C183.494 245.348 184.655 246.14 186.455 247.028C192.746 250.131 203.4 252.79 212.882 254.531C212.76 250.257 211.767 245.868 209.518 242.898C208.092 241.015 206.111 239.617 203.162 239.1ZM182.444 244.258C182.445 244.258 182.45 244.266 182.458 244.283C182.447 244.266 182.444 244.258 182.444 244.258ZM182.447 245.176C182.44 245.189 182.436 245.196 182.436 245.196C182.435 245.196 182.439 245.189 182.447 245.176ZM216.693 237.464C221.887 244.323 222.376 253.997 221.598 260.366L221.033 264.989L216.432 264.266C205.892 262.608 191.219 259.413 182.474 255.1C180.262 254.009 178.14 252.71 176.533 251.14C174.945 249.588 173.348 247.244 173.546 244.217C173.741 241.222 175.606 238.96 177.656 237.348C179.742 235.708 182.617 234.251 186.179 232.898M216.693 237.464C213.969 233.867 210.024 231.166 204.717 230.235ZM204.717 230.235C199.533 229.325 193.386 230.159 186.179 232.898Z" fill="#94C0E9"/><path id="Path (Stroke)_4" fill-rule="evenodd" clip-rule="evenodd" d="M244.24 231.542C249.652 230.936 254.418 233.614 257.974 239.016L257.974 239.016C261.028 243.655 262.17 248.486 260.023 252.93C258.076 256.96 253.998 259.321 250.188 260.832C243.731 263.392 234.856 264.665 227.728 265.687C226.36 265.883 225.056 266.07 223.846 266.255L217.656 267.202L218.733 261.034C219.261 258.003 220.971 253.975 223.156 250.106C225.39 246.151 228.377 241.906 231.799 238.488C235.112 235.18 239.394 232.084 244.24 231.542ZM230.069 256.244C236.204 255.33 242.315 254.272 246.87 252.466C250.137 251.171 251.496 249.892 251.919 249.015C252.144 248.551 252.591 247.206 250.457 243.965C248.267 240.638 246.478 240.348 245.24 240.486C243.436 240.688 240.972 242.047 238.159 244.856C235.455 247.557 232.935 251.093 230.993 254.532C230.661 255.119 230.353 255.691 230.069 256.244Z" fill="#94C0E9"/><g id="Clipped_2"><mask id="mask1_711_1433190c6e301f-0d3c-411e-8f5b-3ac2744031f4" style="mask-type:luminance" maskUnits="userSpaceOnUse" x="144" y="258" width="156" height="147" fill="#ffffff"><path id="Path_6" fill-rule="evenodd" clip-rule="evenodd" d="M144 258.982H300V404.982H144V258.982Z" fill="#ffffff"/></mask><g mask="url(#mask1_711_1433190c6e301f-0d3c-411e-8f5b-3ac2744031f4)"><g id="Group_2"><circle id="Oval" cx="149" cy="365.982" r="13" fill="#F3705A"/><circle id="Oval_2" cx="199" cy="397.982" r="13" fill="#F3705A"/><circle id="Oval_3" cx="223" cy="345" r="13" fill="#F3705A"/><circle id="Oval_4" cx="246" cy="385" r="13" fill="#F3705A"/><circle id="Oval_5" cx="293" cy="399" r="13" fill="#F3705A"/><circle id="Oval_6" cx="300" cy="335.982" r="13" fill="#F3705A"/><circle id="Oval_7" cx="250" cy="298.982" r="13" fill="#F3705A"/><circle id="Oval_8" cx="169" cy="297.982" r="13" fill="#F3705A"/><circle id="Oval_9" cx="182" cy="338.982" r="13" fill="#F3705A"/></g></g></g><rect id="Rectangle" x="136" y="258.982" width="177" height="34" fill="#94C0E9"/><rect id="Rectangle_2" x="263" y="305" width="102" height="100" fill="#5BA092"/><path id="Path (Stroke)_5" fill-rule="evenodd" clip-rule="evenodd" d="M366.413 318.322C366.788 318.728 366.762 319.36 366.357 319.735L325.957 357.027L365.235 337.604C365.73 337.359 366.33 337.562 366.575 338.057C366.819 338.552 366.617 339.152 366.122 339.396L320.622 361.896L319.5 360.265L365 318.265C365.406 317.891 366.038 317.916 366.413 318.322Z" fill="#E74B33"/><path id="Path (Stroke)_6" fill-rule="evenodd" clip-rule="evenodd" d="M324 360.877L324.48 359H366.48C367.033 359 367.48 359.448 367.48 360C367.48 360.552 367.033 361 366.48 361H328.388L366.961 382.123C367.445 382.388 367.623 382.996 367.357 383.48C367.092 383.965 366.484 384.142 366 383.877L324 360.877Z" fill="#E74B33"/><path id="Path (Stroke)_7" fill-rule="evenodd" clip-rule="evenodd" d="M262.048 338.694C262.218 338.168 262.781 337.879 263.307 338.048L306.807 352.048L306.592 353.996L263.092 357.996C262.542 358.047 262.055 357.642 262.004 357.092C261.954 356.542 262.359 356.055 262.909 356.004L301.535 352.453L262.694 339.952C262.168 339.783 261.879 339.22 262.048 338.694Z" fill="#E74B33"/><path id="Path (Stroke)_8" fill-rule="evenodd" clip-rule="evenodd" d="M313.07 360.371L264.268 373.927C263.736 374.075 263.185 373.763 263.037 373.231C262.889 372.699 263.2 372.148 263.733 372L317.733 357L318.595 358.767L264.595 398.767C264.152 399.096 263.525 399.003 263.197 398.559C262.868 398.115 262.961 397.489 263.405 397.16L313.07 360.371Z" fill="#E74B33"/><path id="Path_7" d="M324.557 342.633L321.003 328.32L315.246 338.573L302.546 330.588L303.251 345.889L291.193 348.748L299.444 359.447L292.011 368.475L308.329 369.01L315.936 381.484L319.892 368.93L333.699 376.01L331.548 361.821L342.519 360.662L332.77 351.857L334.691 339.448L324.557 342.633Z" fill="#F3705A"/></g></g></g></g></svg>